<svg xmlns="http://www.w3.org/2000/svg" data-v-fde0c5aa="" viewBox="0 0 346 78" version="1.1" id="svg16" class="Logo">
   <metadata id="metadata20"></metadata>

   <defs data-v-fde0c5aa="" id="defs2">

      <linearGradient xlink:href="#93e0d0ac-eeb8-41d0-b5a9-0cb6d464623a" id="linearGradient22" gradientTransform="scale(2.3997896,0.4167032)" x1="0.47087461" y1="-0.023997895" x2="31.836124" y2="-0.023997895" gradientUnits="userSpaceOnUse" />
      <linearGradient xlink:href="#93e0d0ac-eeb8-41d0-b5a9-0cb6d464623a" id="linearGradient24" gradientTransform="scale(2.3997896,0.4167032)" x1="0.47087461" y1="-0.023997895" x2="31.836124" y2="-0.023997895" gradientUnits="userSpaceOnUse" />
      <linearGradient data-v-fde0c5aa="" gradientTransform="rotate(25)" id="5856506c-b5a2-449f-8bb4-a0620a1627fb" x1="0" y1="0" x2="1" y2="0">
         <stop data-v-fde0c5aa="" offset="0%" stop-color="#422F75" stop-opacity="1" id="stop11" />
         <stop data-v-fde0c5aa="" offset="100%" stop-color="#C0B3EC" stop-opacity="1" id="stop13" />
      </linearGradient>
      <linearGradient xlink:href="#5856506c-b5a2-449f-8bb4-a0620a1627fb" id="linearGradient57" gradientTransform="scale(0.98220161,1.0181209)" x1="1.7959653" y1="0" x2="100.01613" y2="0" gradientUnits="userSpaceOnUse" />
      <linearGradient xlink:href="#5856506c-b5a2-449f-8bb4-a0620a1627fb" id="linearGradient59" gradientTransform="scale(1.0839683,0.92253616)" x1="51.067912" y1="24.237532" x2="89.715719" y2="24.237532" gradientUnits="userSpaceOnUse" />
      <linearGradient xlink:href="#5856506c-b5a2-449f-8bb4-a0620a1627fb" id="linearGradient130" gradientUnits="userSpaceOnUse" gradientTransform="scale(0.98220161,1.0181209)" x1="1.7959653" y1="0" x2="100.01613" y2="0" />
   </defs>
   <defs data-v-fde0c5aa="" id="defs11">
      <linearGradient data-v-fde0c5aa="" gradientTransform="rotate(25)" id="93e0d0ac-eeb8-41d0-b5a9-0cb6d464623a" x1="0" y1="0" x2="1" y2="0">
         <stop data-v-fde0c5aa="" offset="0%" stop-color="#422F75" stop-opacity="1" id="stop6" />
         <stop data-v-fde0c5aa="" offset="100%" stop-color="#C0B3EC" stop-opacity="1" id="stop8" />
      </linearGradient>
   </defs>
   <g data-v-fde0c5aa="" id="a52d3244-9717-466c-bb9e-9d87372ed7ee" fill="url(#93e0d0ac-eeb8-41d0-b5a9-0cb6d464623a)" transform="matrix(2.922811,0,0,2.922811,101.10599,20.86506)" style="fill:url(#linearGradient24)">
      <path d="m 8.4,1.36 v 0 h 2.97 V 10.5 H 9.51 V 3.25 L 7.14,10.5 H 5.38 L 2.87,3.26 V 10.5 H 1.13 V 1.36 H 4.1 l 2.14,6.72 z m 7.83,1.76 v 0 0 q 0.46,0 0.99,0.15 v 0 0 q 0.53,0.15 0.99,0.48 v 0 0 q 0.47,0.32 0.76,0.84 v 0 0 q 0.29,0.52 0.28,1.26 v 0 4.65 h -1.37 v 0 q 0,0 -0.04,-0.17 v 0 0 Q 17.79,10.16 17.75,9.95 v 0 0 Q 17.7,9.74 17.65,9.58 v 0 0 Q 17.61,9.42 17.61,9.44 v 0 0 q -0.19,0.35 -0.52,0.61 v 0 0 q -0.28,0.24 -0.72,0.42 v 0 0 q -0.44,0.18 -1.08,0.18 v 0 0 q -0.45,0 -0.88,-0.13 v 0 0 q -0.44,-0.13 -0.78,-0.39 v 0 0 Q 13.29,9.87 13.07,9.48 v 0 0 Q 12.85,9.09 12.84,8.57 v 0 0 Q 12.81,8.02 12.99,7.59 v 0 0 q 0.17,-0.42 0.5,-0.73 v 0 0 q 0.33,-0.31 0.79,-0.5 v 0 0 Q 14.74,6.17 15.29,6.1 v 0 0 q 0.52,-0.07 1.13,-0.07 v 0 0 q 0.62,0 1.11,0.03 v 0 -0.22 0 q 0,-0.6 -0.27,-0.91 v 0 0 Q 17,4.63 16.6,4.54 v 0 0 Q 16.2,4.45 15.72,4.52 v 0 0 q -0.47,0.07 -0.91,0.2 v 0 0 Q 14.38,4.86 14.05,5 v 0 0 q -0.33,0.15 -0.41,0.22 v 0 -1.41 0 q 0.01,-0.02 0.25,-0.12 v 0 0 q 0.24,-0.11 0.6,-0.23 v 0 0 q 0.36,-0.13 0.82,-0.23 v 0 0 q 0.45,-0.11 0.92,-0.11 z m 0.89,5.56 v 0 0 q 0.24,-0.31 0.32,-0.69 v 0 0 Q 17.51,7.62 17.51,7.2 v 0 H 16.7 v 0 q -0.32,0 -0.68,0.04 v 0 0 q -0.37,0.04 -0.68,0.17 v 0 0 q -0.3,0.12 -0.51,0.37 v 0 0 q -0.21,0.24 -0.21,0.66 v 0 0 q 0,0.46 0.34,0.67 v 0 0 q 0.34,0.21 0.85,0.21 v 0 0 q 0.43,0 0.76,-0.17 v 0 0 Q 16.9,8.97 17.12,8.68 Z m 9.03,-5.39 h 1.47 v 6.34 0 q 0,0.69 -0.21,1.3 v 0 0 q -0.22,0.61 -0.69,1.08 v 0 0 q -0.47,0.46 -1.2,0.75 v 0 0 q -0.73,0.29 -1.75,0.3 v 0 0 q -0.54,0 -0.99,-0.08 v 0 0 q -0.45,-0.07 -0.77,-0.17 v 0 0 Q 21.63,12.7 21.32,12.54 v 0 l 0.14,-1.49 v 0 q 0.31,0.15 0.67,0.28 v 0 0 q 0.33,0.11 0.74,0.19 v 0 0 q 0.41,0.07 0.9,0.07 v 0 0 q 0.59,0 0.96,-0.16 v 0 0 q 0.37,-0.16 0.59,-0.4 v 0 0 q 0.22,-0.25 0.31,-0.53 v 0 0 q 0.1,-0.28 0.12,-0.53 v 0 0 q 0.02,-0.24 0.01,-0.41 v 0 0 Q 25.75,9.39 25.75,9.39 v 0 0 q 0,0 -0.12,0.17 v 0 0 q -0.11,0.17 -0.36,0.38 v 0 0 q -0.25,0.21 -0.66,0.38 v 0 0 q -0.4,0.18 -0.99,0.18 v 0 0 q -0.63,0 -1.19,-0.19 v 0 0 Q 21.87,10.12 21.45,9.68 v 0 0 Q 21.03,9.24 20.78,8.53 v 0 0 Q 20.54,7.81 20.54,6.78 v 0 0 q 0,-1.04 0.31,-1.74 v 0 0 q 0.3,-0.7 0.77,-1.13 v 0 0 q 0.46,-0.42 1,-0.61 v 0 0 q 0.54,-0.18 1,-0.18 v 0 0 q 0.54,0 0.95,0.16 v 0 0 q 0.41,0.16 0.66,0.36 v 0 0 q 0.26,0.2 0.4,0.36 v 0 0 q 0.13,0.16 0.13,0.16 v 0 z m -0.4,3.53 v 0 0 q 0,-1.14 -0.45,-1.69 v 0 0 Q 24.85,4.58 24.12,4.58 v 0 0 q -0.73,0 -1.17,0.55 v 0 0 Q 22.5,5.68 22.5,6.82 v 0 0 q 0,1.13 0.45,1.68 v 0 0 q 0.44,0.54 1.17,0.54 v 0 0 q 0.73,0 1.18,-0.54 v 0 0 q 0.45,-0.55 0.45,-1.68 z m 5.82,3.68 H 29.68 V 3.29 h 1.89 z m 0.1,-9.48 v 0 0 q 0,0.45 -0.31,0.76 v 0 0 q -0.31,0.31 -0.74,0.31 v 0 0 q -0.45,0 -0.76,-0.31 v 0 0 Q 29.55,1.47 29.55,1.02 v 0 0 q 0,-0.43 0.31,-0.73 v 0 0 q 0.31,-0.3 0.76,-0.3 v 0 0 q 0.43,0 0.74,0.3 v 0 0 q 0.31,0.3 0.31,0.73 z m 5.23,2.1 v 0 0 q 0.44,0 0.77,0.06 v 0 0 q 0.34,0.05 0.58,0.12 v 0 0 q 0.26,0.09 0.49,0.19 v 0 1.33 0 Q 38.19,4.65 37.55,4.59 v 0 0 Q 36.92,4.54 36.37,4.74 v 0 0 q -0.54,0.2 -0.91,0.71 v 0 0 Q 35.1,5.95 35.1,6.89 v 0 0 q 0,0.98 0.36,1.49 v 0 0 q 0.37,0.51 0.91,0.68 v 0 0 q 0.55,0.18 1.18,0.09 v 0 0 q 0.64,-0.09 1.19,-0.3 v 0 1.38 0 q -0.21,0.13 -0.49,0.21 v 0 0 q -0.24,0.09 -0.58,0.15 v 0 0 q -0.35,0.06 -0.78,0.06 v 0 0 q -0.55,0 -1.2,-0.14 v 0 0 Q 35.03,10.37 34.46,9.97 v 0 0 Q 33.89,9.56 33.52,8.83 v 0 0 Q 33.14,8.09 33.14,6.89 v 0 0 q 0,-1.19 0.38,-1.93 v 0 0 q 0.37,-0.75 0.94,-1.15 v 0 0 Q 35.03,3.4 35.69,3.26 v 0 0 Q 36.34,3.12 36.9,3.12 Z M 47.47,1.36 v 0 h 2.97 V 10.5 H 48.58 V 3.25 L 46.21,10.5 H 44.45 L 41.94,3.26 V 10.5 H 40.21 V 1.36 h 2.97 l 2.14,6.72 z m 8.38,1.76 v 0 0 q 0.56,0 1.21,0.17 v 0 0 q 0.66,0.17 1.24,0.59 v 0 0 q 0.57,0.42 0.96,1.15 v 0 0 q 0.38,0.72 0.38,1.86 v 0 0 q 0,1.13 -0.38,1.86 v 0 0 Q 58.87,9.48 58.3,9.9 v 0 0 q -0.58,0.42 -1.24,0.59 v 0 0 q -0.65,0.16 -1.21,0.16 v 0 0 q -0.56,0 -1.22,-0.16 v 0 0 Q 53.97,10.32 53.4,9.9 v 0 0 Q 52.84,9.48 52.46,8.75 v 0 0 Q 52.08,8.02 52.08,6.89 v 0 0 q 0,-1.14 0.38,-1.86 v 0 0 Q 52.84,4.3 53.4,3.88 v 0 0 q 0.57,-0.42 1.23,-0.59 v 0 0 q 0.66,-0.17 1.22,-0.17 z m 0,6.13 v 0 0 q 0.78,0 1.31,-0.61 v 0 0 q 0.52,-0.62 0.52,-1.75 v 0 0 q 0,-1.14 -0.52,-1.75 v 0 0 q -0.53,-0.6 -1.31,-0.6 v 0 0 q -0.76,0 -1.28,0.6 v 0 0 q -0.52,0.61 -0.52,1.75 v 0 0 q 0,0.56 0.14,1 v 0 0 q 0.14,0.44 0.38,0.74 v 0 0 q 0.24,0.3 0.57,0.46 v 0 0 q 0.33,0.16 0.71,0.16 z m 8.56,-6.13 v 0 0 q 0.56,0 1.22,0.17 v 0 0 q 0.66,0.17 1.23,0.59 v 0 0 q 0.58,0.42 0.96,1.15 v 0 0 q 0.39,0.72 0.39,1.86 v 0 0 q 0,1.13 -0.39,1.86 v 0 0 Q 67.44,9.48 66.86,9.9 v 0 0 q -0.57,0.42 -1.23,0.59 v 0 0 q -0.66,0.16 -1.22,0.16 v 0 0 q -0.56,0 -1.21,-0.16 v 0 0 Q 62.54,10.32 61.97,9.9 v 0 0 Q 61.4,9.48 61.03,8.75 v 0 0 Q 60.65,8.02 60.65,6.89 v 0 0 q 0,-1.14 0.38,-1.86 v 0 0 Q 61.4,4.3 61.97,3.88 v 0 0 Q 62.54,3.46 63.2,3.29 v 0 0 q 0.65,-0.17 1.21,-0.17 z m 0,6.13 v 0 0 q 0.79,0 1.31,-0.61 v 0 0 q 0.53,-0.62 0.53,-1.75 v 0 0 q 0,-1.14 -0.53,-1.75 v 0 0 Q 65.2,4.54 64.41,4.54 v 0 0 q -0.75,0 -1.27,0.6 v 0 0 q -0.52,0.61 -0.52,1.75 v 0 0 q 0,0.56 0.14,1 v 0 0 q 0.14,0.44 0.38,0.74 v 0 0 q 0.24,0.3 0.57,0.46 v 0 0 q 0.33,0.16 0.7,0.16 z m 9.54,-6.13 v 0 0 q 0.64,0 1.1,0.22 v 0 0 q 0.47,0.22 0.77,0.59 v 0 0 q 0.3,0.38 0.44,0.9 v 0 0 q 0.14,0.52 0.14,1.12 v 0 4.55 h -1.88 v -3.92 0 q 0,-1.04 -0.28,-1.53 v 0 0 Q 73.96,4.56 73.28,4.56 v 0 0 q -0.83,0 -1.23,0.69 v 0 0 q -0.4,0.69 -0.4,1.81 v 0 3.44 H 69.78 V 3.29 h 1.4 l 0.37,0.98 v 0 q 0.14,-0.15 0.31,-0.36 v 0 0 q 0.17,-0.2 0.43,-0.37 v 0 0 q 0.26,-0.18 0.66,-0.3 v 0 0 q 0.4,-0.12 1,-0.12 z" id="path13" style="fill:url(#linearGradient22)" />
   </g>
   <g data-v-fde0c5aa="" id="2e251836-bbc4-4797-98f6-b97cb97e7d79" stroke="none" fill="url(#5856506c-b5a2-449f-8bb4-a0620a1627fb)" transform="matrix(0.70295405,0,0,0.70295405,20.082599,4.5621738)" style="fill:url(#linearGradient57)">
      <path d="m 81.035,72.347 c -21.776,0 -39.429,-17.65 -39.429,-39.429 0,-13.43 6.729,-25.273 16.989,-32.399 C 56.355,0.215 54.085,0 51.761,0 24.149,0 1.764,22.387 1.764,50 c 0,27.613 22.385,50 49.997,50 21.125,0 39.15,-13.123 46.475,-31.639 -5.203,2.529 -11.027,3.986 -17.201,3.986 z" id="path18" style="fill:url(#linearGradient130)" />
      <path d="m 86.217,35.946 c 0,0 -1.015,6.772 -2.45,8.317 -1.641,1.757 -8.589,2.721 -8.589,2.721 0,0 6.811,1.106 8.407,2.71 1.601,1.596 2.632,8.32 2.632,8.32 0,0 1.039,-6.622 2.635,-8.233 1.617,-1.639 8.397,-2.797 8.397,-2.797 0,0 -6.78,-1.118 -8.397,-2.809 -1.518,-1.581 -2.635,-8.229 -2.635,-8.229 z M 61.799,22.36 c 0,0 -0.591,3.952 -1.43,4.856 -0.957,1.023 -5.013,1.586 -5.013,1.586 0,0 3.976,0.649 4.908,1.583 0.935,0.931 1.535,4.856 1.535,4.856 0,0 0.607,-3.865 1.537,-4.805 0.942,-0.957 4.9,-1.634 4.9,-1.634 0,0 -3.958,-0.651 -4.9,-1.638 -0.884,-0.922 -1.537,-4.804 -1.537,-4.804 z" id="path20" style="fill:url(#linearGradient59)" />
   </g>
</svg>